<svg width="425" height="425" viewBox="0 0 425 425" fill="none" xmlns="http://www.w3.org/2000/svg">
<path d="M157.807 179.656L206.805 177.391C206.805 177.391 218.765 175.134 227.583 192.585C227.583 192.585 228.858 195.819 225.135 196.996C225.135 196.996 224.447 201.994 219.644 199.346C219.644 199.346 216.703 203.737 212.487 200.12C212.487 200.12 208.662 202.67 199.159 195.917C189.228 200.271 178.8 203.39 168.109 205.203C166.038 205.551 164.005 205.845 162.01 206.083L154.36 207.298C151.775 207.71 149.135 207.608 146.59 206.999C144.044 206.39 141.644 205.285 139.525 203.749C137.407 202.212 135.612 200.273 134.243 198.042C132.874 195.812 131.957 193.333 131.546 190.749L157.807 179.656Z" fill="white"/>
<path d="M151.185 208.403C152.294 208.402 153.401 208.313 154.496 208.139L162.146 206.92C164.156 206.682 166.222 206.384 168.253 206.04C178.853 204.241 189.196 201.167 199.057 196.885C206.796 202.274 210.906 201.667 212.372 201.135C213.707 202.143 215.071 202.559 216.44 202.372C217.774 202.141 218.988 201.455 219.874 200.43C221.348 201.101 222.64 201.169 223.699 200.63C225.071 199.937 225.637 198.449 225.845 197.655C226.888 197.292 227.75 196.539 228.25 195.555C228.698 194.518 228.736 193.351 228.357 192.287L228.323 192.219C219.551 174.87 207.774 176.379 206.69 176.562L157.594 178.831L130.581 190.243L130.683 190.901C131.461 195.778 133.949 200.218 137.701 203.428C141.454 206.637 146.226 208.407 151.164 208.42L151.185 208.403ZM199.257 194.943L198.832 195.139C188.963 199.461 178.603 202.559 167.981 204.365C165.979 204.701 163.939 204.994 161.925 205.237L154.241 206.461C149.352 207.242 144.351 206.091 140.295 203.253C136.238 200.415 133.444 196.11 132.502 191.25L158.002 180.485L206.907 178.219H206.966C207.425 178.134 218.412 176.354 226.805 192.916C227.015 193.536 226.991 194.212 226.737 194.816C226.539 195.158 226.272 195.456 225.953 195.691C225.634 195.926 225.27 196.092 224.884 196.18L224.37 196.341L224.298 196.873C224.298 196.873 224.043 198.547 222.955 199.091C222.254 199.435 221.28 199.274 220.061 198.598L219.376 198.22L218.951 198.87C218.951 198.87 217.859 200.451 216.21 200.668C215.199 200.808 214.136 200.4 213.057 199.469L212.564 199.044L212.028 199.406C212.028 199.406 208.424 201.446 199.665 195.215L199.257 194.943Z" fill="black"/>
<path d="M225.135 198.05C225.337 198.049 225.534 197.992 225.705 197.884C225.943 197.733 226.111 197.494 226.172 197.219C226.233 196.944 226.183 196.656 226.032 196.418L220.681 187.965C220.605 187.846 220.506 187.744 220.391 187.663C220.275 187.583 220.144 187.526 220.007 187.496C219.869 187.466 219.727 187.464 219.588 187.489C219.449 187.514 219.317 187.566 219.198 187.642C219.079 187.718 218.977 187.817 218.897 187.933C218.816 188.048 218.759 188.179 218.729 188.316C218.699 188.454 218.697 188.597 218.722 188.735C218.747 188.874 218.799 189.006 218.875 189.125L224.226 197.578C224.324 197.728 224.46 197.85 224.619 197.933C224.778 198.015 224.956 198.056 225.135 198.05Z" fill="black"/>
<path d="M219.644 200.409C219.838 200.41 220.028 200.358 220.194 200.259C220.36 200.16 220.496 200.018 220.587 199.847C220.677 199.676 220.72 199.483 220.708 199.29C220.697 199.097 220.634 198.911 220.524 198.751L215.309 191.101C215.231 190.986 215.13 190.887 215.013 190.811C214.896 190.735 214.766 190.682 214.629 190.656C214.491 190.63 214.351 190.632 214.214 190.66C214.077 190.689 213.948 190.744 213.833 190.823C213.717 190.902 213.619 191.002 213.542 191.119C213.466 191.236 213.413 191.367 213.387 191.504C213.362 191.641 213.363 191.782 213.392 191.918C213.42 192.055 213.475 192.185 213.554 192.3L218.769 199.95C218.866 200.092 218.997 200.209 219.149 200.289C219.302 200.369 219.472 200.41 219.644 200.409Z" fill="black"/>
<path d="M212.5 201.182C212.721 201.183 212.937 201.113 213.116 200.982C213.23 200.901 213.327 200.799 213.4 200.68C213.474 200.561 213.524 200.429 213.546 200.291C213.569 200.153 213.564 200.012 213.532 199.877C213.499 199.741 213.441 199.612 213.359 199.499L208.548 192.805C208.466 192.692 208.363 192.596 208.244 192.523C208.126 192.449 207.994 192.4 207.856 192.377C207.718 192.355 207.578 192.36 207.442 192.391C207.306 192.423 207.178 192.482 207.064 192.563C206.951 192.645 206.855 192.748 206.781 192.866C206.708 192.985 206.658 193.117 206.636 193.255C206.614 193.392 206.618 193.533 206.65 193.669C206.682 193.805 206.741 193.933 206.822 194.046L211.637 200.74C211.735 200.878 211.865 200.989 212.015 201.066C212.165 201.143 212.331 201.183 212.5 201.182Z" fill="black"/>
<path d="M194.225 344.964L233.882 361.25C234.434 361.477 234.904 361.867 235.229 362.368C235.553 362.87 235.716 363.458 235.697 364.055C235.672 364.823 235.347 365.551 234.79 366.082C234.233 366.612 233.49 366.902 232.722 366.89L185.547 366.04L186.095 371.437C186.128 371.747 186.099 372.061 186.009 372.36C185.92 372.659 185.772 372.937 185.574 373.178C185.377 373.419 185.133 373.618 184.858 373.765C184.582 373.911 184.28 374.001 183.97 374.03L173.519 374.973C172.927 375.029 172.335 374.859 171.862 374.497C171.389 374.136 171.07 373.609 170.969 373.022L166.864 349.443L194.225 344.964Z" fill="#959595"/>
<path d="M82.8752 340.595L99.4077 380.12C99.6376 380.671 99.6936 381.28 99.5683 381.864C99.443 382.448 99.1423 382.98 98.7064 383.388C98.1442 383.913 97.3985 384.196 96.6298 384.176C95.8611 384.156 95.131 383.835 94.5967 383.282L61.8717 349.329L58.4462 353.536C58.2488 353.779 58.0052 353.98 57.7296 354.127C57.4539 354.275 57.1517 354.366 56.8405 354.395C56.5293 354.425 56.2152 354.393 55.9167 354.3C55.6181 354.207 55.341 354.056 55.1014 353.855L47.0264 347.132C46.571 346.753 46.2746 346.216 46.1958 345.629C46.1171 345.042 46.2619 344.447 46.6014 343.961L60.3714 324.385L82.8752 340.595Z" fill="#959595"/>
<path d="M193.8 230.282C193.998 230.284 194.192 230.23 194.361 230.126C194.53 230.023 194.667 229.874 194.755 229.697C194.844 229.52 194.881 229.322 194.862 229.124C194.844 228.927 194.77 228.739 194.65 228.582L174.199 201.645C173.783 201.088 173.531 200.426 173.471 199.733C173.41 199.04 173.543 198.344 173.855 197.723C174.168 197.101 174.647 196.579 175.239 196.214C175.831 195.849 176.513 195.657 177.208 195.657H207.948C208.23 195.657 208.5 195.545 208.7 195.346C208.899 195.147 209.011 194.877 209.011 194.595C209.011 194.313 208.899 194.043 208.7 193.843C208.5 193.644 208.23 193.532 207.948 193.532H177.191C176.101 193.533 175.032 193.836 174.105 194.409C173.177 194.982 172.427 195.801 171.939 196.776C171.45 197.75 171.242 198.841 171.338 199.927C171.434 201.013 171.83 202.051 172.482 202.925L192.95 229.865C193.051 229.995 193.179 230.1 193.327 230.172C193.474 230.244 193.636 230.282 193.8 230.282Z" fill="black"/>
<path d="M142.647 217.838C147.807 220.813 151.608 225.677 153.247 231.403C154.886 237.129 154.235 243.268 151.432 248.523L100.258 344.25C99.6887 345.341 98.8925 346.298 97.9225 347.055C96.9525 347.812 95.8314 348.353 94.6348 348.64C90.8098 349.529 85.1361 348.972 80.9116 340.531C80.5503 340.684 74.1668 343.298 68.5101 339.303C63.5801 335.818 63.2273 330.153 63.1976 329.464C62.6281 329.66 58.7861 330.905 55.1013 328.699C54.9483 328.606 54.7953 328.512 54.6508 328.41C50.8003 325.792 49.9163 320.471 52.4663 316.574C71.0388 288.159 92.4503 255.166 112 225.199C115.205 220.293 120.165 216.799 125.863 215.433C131.561 214.067 137.566 214.932 142.647 217.851V217.838Z" fill="black"/>
<path d="M127.075 119L136.314 122.774C140.098 124.316 144.34 124.293 148.107 122.708C151.873 121.124 154.856 118.108 156.4 114.325L161.5 101.877C162.371 99.743 162.359 97.3506 161.466 95.2258C160.574 93.101 158.873 91.4178 156.74 90.5462L143.276 85.0467C139.491 83.5046 135.249 83.5288 131.483 85.114C127.716 86.6993 124.733 89.7157 123.19 93.5L119.829 101.724C118.501 104.976 118.518 108.622 119.877 111.861C121.236 115.101 123.825 117.668 127.075 119Z" fill="black"/>
<path d="M152.575 105.914C154.287 105.91 155.961 105.414 157.399 104.485C158.837 103.556 159.977 102.233 160.684 100.674L160.845 100.321L160.684 99.9728C159.856 98.1572 158.431 96.68 156.646 95.7865L147.475 91.2093C146.369 90.6584 145.163 90.3356 143.929 90.2602C142.695 90.1847 141.459 90.3581 140.294 90.7701C139.128 91.182 138.058 91.8241 137.146 92.6582C136.234 93.4922 135.499 94.5011 134.984 95.625L132.948 100.088L133.195 100.474C133.844 101.505 134.697 102.39 135.703 103.077C136.708 103.763 137.844 104.236 139.04 104.464C140.236 104.693 141.466 104.674 142.654 104.407C143.841 104.14 144.962 103.632 145.945 102.914C146.777 103.852 147.798 104.603 148.94 105.12C150.083 105.637 151.321 105.908 152.575 105.914ZM158.95 100.326C158.385 101.417 157.55 102.345 156.524 103.023C155.499 103.7 154.317 104.103 153.091 104.194C151.866 104.284 150.637 104.06 149.523 103.541C148.409 103.022 147.446 102.227 146.727 101.231L146.2 100.47L145.494 101.095C144.744 101.768 143.861 102.276 142.901 102.585C141.942 102.894 140.928 102.998 139.926 102.89C138.924 102.782 137.956 102.464 137.085 101.957C136.213 101.45 135.459 100.765 134.869 99.9473L136.518 96.339C136.937 95.4198 137.536 94.5943 138.281 93.9119C139.025 93.2295 139.9 92.7042 140.852 92.3674C141.804 92.0306 142.814 91.8892 143.822 91.9516C144.83 92.014 145.815 92.279 146.718 92.7308L155.903 97.325C157.214 97.9811 158.288 99.03 158.975 100.326H158.95Z" fill="black"/>
<path d="M126.174 116.399L129.68 109.297C128.431 108.83 127.418 107.886 126.865 106.672C126.312 105.458 126.264 104.074 126.731 102.824C127.198 101.575 128.143 100.562 129.356 100.009C130.57 99.456 131.954 99.4078 133.204 99.875C133.425 99.9563 133.639 100.054 133.845 100.168L133.913 100.024C134.536 101.012 135.368 101.853 136.349 102.487C137.331 103.122 138.439 103.534 139.596 103.696C140.754 103.858 141.932 103.765 143.05 103.425C144.168 103.084 145.198 102.503 146.068 101.724C146.894 102.868 148.006 103.776 149.293 104.355C150.58 104.933 151.997 105.163 153.401 105.021C154.805 104.879 156.147 104.37 157.292 103.545C158.437 102.72 159.344 101.608 159.923 100.321C160.354 101.258 160.595 102.271 160.634 103.301C160.673 104.332 160.508 105.36 160.149 106.326L159.333 108.528C158.531 110.69 158.34 113.031 158.78 115.294C158.88 115.765 158.799 116.256 158.552 116.67C158.305 117.084 157.912 117.389 157.45 117.525L155.809 117.993L154.075 122.668C153.731 123.595 153.19 124.437 152.489 125.136C151.788 125.835 150.944 126.374 150.016 126.716C149.087 127.058 148.096 127.195 147.109 127.117C146.122 127.04 145.164 126.75 144.3 126.267L140.05 123.883L136.247 131.325L122.464 124.274L126.174 116.399Z" fill="white"/>
<path d="M136.616 132.451L140.39 125.073L143.879 127.028C144.851 127.571 145.929 127.898 147.039 127.985C148.149 128.073 149.264 127.919 150.309 127.535C151.354 127.15 152.303 126.544 153.092 125.759C153.881 124.973 154.49 124.026 154.878 122.982L156.459 118.711L157.675 118.363C158.34 118.174 158.91 117.74 159.27 117.149C159.629 116.558 159.752 115.853 159.613 115.175V115.12C159.416 114.117 159.354 113.092 159.426 112.073C159.505 110.964 159.741 109.872 160.127 108.83L160.947 106.624C161.346 105.554 161.529 104.415 161.486 103.273C161.443 102.132 161.175 101.01 160.697 99.9728L159.919 98.2728L159.15 99.9728C158.632 101.124 157.821 102.12 156.798 102.859C155.774 103.599 154.574 104.056 153.319 104.185C152.063 104.314 150.795 104.111 149.642 103.595C148.49 103.08 147.493 102.27 146.752 101.248L146.2 100.47L145.494 101.095C144.716 101.792 143.794 102.31 142.794 102.615C141.795 102.919 140.74 103.002 139.705 102.857C138.67 102.712 137.68 102.343 136.802 101.776C135.924 101.209 135.18 100.457 134.623 99.5733L133.773 98.2473L133.403 99.0548C131.948 98.5373 130.347 98.6137 128.948 99.2676C127.549 99.9214 126.464 101.1 125.927 102.548C125.446 103.854 125.442 105.288 125.917 106.596C126.391 107.905 127.313 109.003 128.52 109.697L125.405 116.025L121.342 124.627L136.616 132.451ZM139.68 122.727L135.877 130.165L123.586 123.875L126.939 116.769L130.857 108.834L129.982 108.503C128.944 108.114 128.102 107.329 127.643 106.321C127.183 105.312 127.143 104.162 127.532 103.124C127.92 102.086 128.705 101.245 129.713 100.785C130.722 100.326 131.872 100.286 132.91 100.674C133.092 100.744 133.27 100.826 133.441 100.921L133.522 100.967C134.208 101.912 135.074 102.711 136.069 103.321C137.065 103.93 138.171 104.338 139.324 104.519C140.477 104.701 141.654 104.653 142.789 104.379C143.924 104.105 144.993 103.61 145.936 102.922C146.809 103.907 147.89 104.686 149.101 105.202C150.312 105.718 151.622 105.959 152.937 105.907C154.253 105.855 155.54 105.511 156.706 104.901C157.872 104.291 158.888 103.429 159.681 102.378C159.902 103.604 159.789 104.866 159.354 106.033L158.533 108.239C157.675 110.547 157.472 113.048 157.947 115.464C158.011 115.729 157.971 116.009 157.836 116.246C157.701 116.482 157.481 116.659 157.22 116.739L155.167 117.3L153.285 122.4C152.982 123.213 152.507 123.952 151.893 124.564C151.278 125.177 150.538 125.649 149.724 125.949C148.909 126.248 148.04 126.368 147.175 126.3C146.31 126.232 145.47 125.977 144.712 125.554L139.68 122.727Z" fill="black"/>
<path d="M122.464 89.6792C115.495 89.6792 109.846 84.0299 109.846 77.061C109.846 70.0921 115.495 64.4427 122.464 64.4427C129.433 64.4427 135.082 70.0921 135.082 77.061C135.082 84.0299 129.433 89.6792 122.464 89.6792Z" fill="black"/>
<path d="M103.012 73.6908C92.8318 73.6908 84.5794 65.4384 84.5794 55.2585C84.5794 45.0787 92.8318 36.8263 103.012 36.8263C113.191 36.8263 121.444 45.0787 121.444 55.2585C121.444 65.4384 113.191 73.6908 103.012 73.6908Z" fill="black"/>
<path d="M159.46 200.49L209.924 337.187C211.459 341.012 210.502 345.296 207.672 347.743C204.187 350.757 198.411 350.519 194.76 346.741C194.539 347.195 192.053 352.023 186.49 352.878C184.506 353.167 182.48 352.917 180.626 352.154C178.771 351.392 177.156 350.144 175.95 348.542C175.105 350.274 173.826 351.758 172.236 352.847C170.647 353.936 168.802 354.595 166.882 354.757C164.962 354.92 163.032 354.582 161.282 353.776C159.532 352.969 158.021 351.723 156.897 350.158C156.094 349.05 155.492 347.81 155.116 346.494L124.941 245.769C124.941 245.769 109.284 233.644 112.905 207.97L159.46 200.49Z" fill="black"/>
<path d="M150.255 111.72C149.581 111.72 149.035 111.174 149.035 110.5C149.035 109.826 149.581 109.28 150.255 109.28C150.928 109.28 151.474 109.826 151.474 110.5C151.474 111.174 150.928 111.72 150.255 111.72Z" fill="black"/>
<path d="M140.216 122.978L138.091 127.139L132.362 119.323C132.328 119.268 132.312 119.204 132.318 119.14C132.324 119.075 132.35 119.015 132.393 118.967C132.437 118.919 132.494 118.886 132.558 118.874C132.621 118.861 132.687 118.87 132.745 118.898L140.216 122.978Z" fill="black"/>
<path d="M149.404 120.883C149.768 120.888 150.131 120.845 150.484 120.755C150.689 120.686 150.86 120.54 150.962 120.349C151.064 120.157 151.088 119.934 151.031 119.725C150.973 119.515 150.838 119.336 150.652 119.224C150.467 119.111 150.245 119.074 150.033 119.119C149.371 119.265 148.678 119.167 148.083 118.843C147.445 118.452 147.003 117.721 146.769 116.667C146.72 116.446 146.585 116.255 146.394 116.134C146.203 116.013 145.972 115.973 145.751 116.023C145.531 116.072 145.339 116.208 145.219 116.398C145.098 116.589 145.058 116.82 145.108 117.041C145.452 118.571 146.162 119.671 147.233 120.309C147.891 120.693 148.642 120.891 149.404 120.883Z" fill="black"/>
<path d="M131.393 106.62C131.705 106.622 132.011 106.539 132.279 106.379C132.546 106.219 132.765 105.989 132.91 105.713C133.056 105.437 133.122 105.127 133.103 104.816C133.084 104.505 132.98 104.205 132.802 103.949C132.624 103.693 132.379 103.491 132.094 103.365C131.809 103.239 131.494 103.194 131.185 103.234C130.876 103.275 130.584 103.4 130.341 103.595C130.098 103.79 129.914 104.049 129.808 104.342C129.655 104.762 129.674 105.226 129.861 105.633C130.048 106.039 130.388 106.356 130.807 106.513C130.994 106.584 131.193 106.62 131.393 106.62ZM131.393 104.495C131.484 104.494 131.573 104.522 131.647 104.575C131.721 104.628 131.775 104.703 131.803 104.79C131.831 104.877 131.83 104.97 131.801 105.056C131.772 105.142 131.716 105.217 131.641 105.269C131.567 105.321 131.477 105.347 131.386 105.345C131.295 105.342 131.208 105.31 131.136 105.254C131.065 105.198 131.013 105.12 130.989 105.032C130.965 104.945 130.969 104.852 131.002 104.767C131.035 104.691 131.09 104.626 131.159 104.581C131.229 104.535 131.31 104.511 131.393 104.512V104.495Z" fill="black"/>
<path d="M132.315 106.131C132.424 106.131 132.531 106.103 132.626 106.05C132.721 105.998 132.802 105.922 132.859 105.829C133.114 105.417 133.256 104.946 133.272 104.462C133.287 103.978 133.176 103.498 132.949 103.071C132.723 102.674 132.406 102.337 132.024 102.087C131.642 101.837 131.205 101.682 130.751 101.634C130.584 101.624 130.418 101.678 130.29 101.787C130.161 101.895 130.08 102.05 130.063 102.217C130.056 102.3 130.065 102.384 130.091 102.464C130.116 102.544 130.157 102.618 130.211 102.682C130.265 102.746 130.332 102.798 130.406 102.837C130.48 102.875 130.562 102.898 130.645 102.905C130.888 102.934 131.121 103.018 131.326 103.152C131.531 103.285 131.702 103.464 131.827 103.674C131.948 103.905 132.008 104.163 131.999 104.423C131.99 104.683 131.913 104.936 131.776 105.158C131.731 105.229 131.701 105.307 131.687 105.39C131.674 105.472 131.676 105.557 131.695 105.638C131.714 105.719 131.749 105.796 131.798 105.864C131.847 105.932 131.908 105.989 131.98 106.033C132.08 106.098 132.196 106.132 132.315 106.131Z" fill="black"/>
<path d="M139.247 133.025C140.332 133.55 141.454 133.994 142.604 134.355C143.974 134.767 145.246 135.454 146.341 136.373C147.437 137.292 148.335 138.425 148.979 139.702L159.511 160.556C159.511 160.556 166.417 173.778 156.863 179.66L106.084 182.98L96.7638 132.175C96.7638 132.175 104.048 124.24 119.714 125.129L122.077 121.469C122.289 121.137 122.617 120.896 122.996 120.791C123.376 120.686 123.781 120.724 124.134 120.9L138.057 127.823C138.407 127.997 138.682 128.293 138.828 128.656C138.974 129.019 138.983 129.422 138.852 129.791L137.921 132.43L139.247 133.025Z" fill="#0882F5"/>
<path d="M103.538 129.055C107.16 128.479 110.863 129.363 113.833 131.515C116.803 133.667 118.798 136.909 119.378 140.53L125.838 181.118L174.836 178.848C174.836 178.848 186.796 176.592 195.615 194.042C195.615 194.042 196.89 197.277 193.167 198.454C193.167 198.454 192.478 203.452 187.676 200.804C187.676 200.804 184.735 205.194 180.519 201.577C180.519 201.577 176.694 204.128 167.191 197.374C157.26 201.731 146.832 204.85 136.14 206.661C134.072 207.009 132.039 207.302 130.041 207.54L122.391 208.756C119.807 209.167 117.166 209.066 114.621 208.457C112.076 207.848 109.675 206.743 107.557 205.206C105.438 203.67 103.643 201.73 102.274 199.5C100.905 197.269 99.9887 194.791 99.5775 192.206L92.0465 144.882C91.4749 141.26 92.364 137.559 94.5186 134.592C96.6732 131.624 99.9172 129.633 103.538 129.055Z" fill="white"/>
<path d="M119.217 209.878C120.325 209.876 121.432 209.788 122.527 209.614L130.177 208.395C132.192 208.157 134.257 207.859 136.285 207.515C146.884 205.716 157.227 202.642 167.089 198.36C174.828 203.749 178.938 203.142 180.404 202.61C181.738 203.618 183.103 204.034 184.471 203.847C185.806 203.616 187.019 202.929 187.905 201.905C189.38 202.576 190.672 202.644 191.73 202.105C193.103 201.412 193.664 199.924 193.876 199.13C194.919 198.767 195.781 198.014 196.282 197.03C196.732 195.993 196.768 194.824 196.384 193.762L196.354 193.694C187.582 176.345 175.81 177.854 174.722 178.037L126.535 180.268L120.198 140.433C119.586 136.585 117.471 133.138 114.317 130.85C111.164 128.563 107.231 127.621 103.383 128.233C99.5356 128.845 96.0888 130.961 93.8009 134.114C91.513 137.268 90.5715 141.201 91.1836 145.048L98.7359 192.359C99.5139 197.235 102.002 201.676 105.754 204.885C109.507 208.095 114.279 209.865 119.217 209.878ZM167.288 196.418L166.863 196.614C156.99 200.937 146.626 204.035 136 205.84C134.002 206.176 131.962 206.469 129.944 206.712L122.26 207.936C117.263 208.73 112.156 207.509 108.06 204.539C103.963 201.57 101.214 197.096 100.415 192.1L92.8836 144.772C92.3437 141.369 93.1764 137.892 95.1989 135.103C97.2213 132.313 100.268 130.441 103.67 129.897C107.072 129.359 110.549 130.193 113.338 132.215C116.126 134.237 117.999 137.283 118.545 140.683L125.12 182.019L174.998 179.699C175.461 179.614 186.443 177.833 194.837 194.395C195.044 195.016 195.02 195.69 194.769 196.295C194.57 196.637 194.303 196.935 193.984 197.17C193.666 197.405 193.302 197.571 192.916 197.659L192.402 197.82L192.329 198.352C192.329 198.352 192.074 200.052 190.986 200.57C190.289 200.914 189.312 200.753 188.092 200.077L187.408 199.703L186.983 200.349C186.983 200.349 185.886 201.93 184.242 202.147C183.23 202.279 182.168 201.879 181.088 200.949L180.595 200.524L180.06 200.885C180.06 200.885 176.456 202.925 167.696 196.694L167.288 196.418Z" fill="black"/>
<path d="M193.167 199.533C193.356 199.532 193.542 199.48 193.705 199.383C193.868 199.285 194.002 199.147 194.094 198.98C194.185 198.814 194.23 198.626 194.225 198.437C194.22 198.247 194.164 198.062 194.064 197.901L188.7 189.448C188.629 189.323 188.534 189.213 188.419 189.126C188.305 189.038 188.174 188.975 188.034 188.94C187.894 188.905 187.749 188.898 187.607 188.921C187.464 188.944 187.328 188.996 187.207 189.073C187.085 189.15 186.98 189.25 186.899 189.369C186.817 189.488 186.761 189.622 186.733 189.763C186.705 189.904 186.706 190.05 186.735 190.191C186.765 190.332 186.824 190.465 186.907 190.583L192.27 199.036C192.365 199.189 192.497 199.314 192.654 199.402C192.811 199.489 192.987 199.534 193.167 199.533Z" fill="black"/>
<path d="M187.676 201.875C187.869 201.876 188.059 201.825 188.225 201.726C188.391 201.627 188.527 201.484 188.618 201.313C188.709 201.142 188.751 200.95 188.74 200.756C188.729 200.563 188.665 200.377 188.555 200.217L183.341 192.567C183.265 192.446 183.166 192.34 183.049 192.258C182.931 192.175 182.799 192.117 182.658 192.087C182.518 192.057 182.373 192.056 182.232 192.084C182.092 192.112 181.958 192.167 181.839 192.248C181.721 192.329 181.62 192.433 181.542 192.553C181.465 192.674 181.413 192.809 181.389 192.951C181.366 193.092 181.371 193.237 181.404 193.376C181.438 193.516 181.5 193.647 181.585 193.762L186.796 201.412C186.894 201.555 187.025 201.671 187.179 201.752C187.332 201.833 187.502 201.875 187.676 201.875Z" fill="black"/>
<path d="M180.523 202.657C180.744 202.657 180.96 202.587 181.139 202.457C181.253 202.376 181.349 202.273 181.422 202.154C181.496 202.035 181.545 201.904 181.568 201.766C181.59 201.628 181.585 201.487 181.553 201.351C181.521 201.216 181.463 201.087 181.382 200.974L176.571 194.28C176.406 194.051 176.157 193.897 175.879 193.852C175.601 193.806 175.316 193.873 175.087 194.038C174.858 194.203 174.704 194.451 174.659 194.729C174.614 195.008 174.68 195.292 174.845 195.521L179.656 202.215C179.755 202.352 179.885 202.464 180.036 202.541C180.187 202.617 180.354 202.657 180.523 202.657Z" fill="black"/>
<path d="M134.725 279.31C134.809 279.31 134.892 279.297 134.972 279.272C135.187 279.207 135.369 279.059 135.475 278.861C135.582 278.662 135.606 278.429 135.541 278.213L125.677 245.272L125.46 245.106C116.046 237.881 113.947 223.856 113.93 223.699C113.898 223.473 113.777 223.27 113.595 223.133C113.413 222.997 113.184 222.938 112.959 222.97C112.733 223.002 112.53 223.122 112.393 223.304C112.256 223.487 112.198 223.716 112.23 223.941C112.315 224.54 114.406 238.612 124.189 246.287L133.896 278.702C133.949 278.88 134.059 279.036 134.208 279.146C134.358 279.255 134.54 279.313 134.725 279.31Z" fill="white"/>
<path d="M116.318 182.86H116.39L125.91 182.193C126.05 182.183 126.186 182.146 126.311 182.084C126.436 182.021 126.548 181.935 126.64 181.829C126.825 181.616 126.918 181.338 126.899 181.056C126.879 180.775 126.748 180.512 126.535 180.327C126.322 180.142 126.043 180.048 125.762 180.068L116.242 180.735C116.102 180.74 115.965 180.773 115.838 180.831C115.711 180.889 115.597 180.971 115.502 181.074C115.406 181.176 115.332 181.296 115.284 181.427C115.235 181.558 115.212 181.697 115.217 181.836C115.222 181.976 115.255 182.113 115.313 182.24C115.371 182.367 115.453 182.481 115.556 182.576C115.658 182.671 115.778 182.745 115.909 182.794C116.039 182.843 116.179 182.865 116.318 182.86Z" fill="black"/>
<path d="M238.302 70.3842H301.648C306.605 70.3842 310.624 74.4029 310.624 79.3602V106.229C310.624 111.186 306.605 115.205 301.648 115.205H238.302C233.344 115.205 229.326 111.186 229.326 106.229V79.3602C229.326 74.4029 233.344 70.3842 238.302 70.3842Z" fill="white"/>
<path d="M238.302 116.055H301.627C304.233 116.051 306.731 115.014 308.573 113.172C310.415 111.329 311.451 108.83 311.453 106.224V79.3645C311.451 76.7588 310.415 74.2604 308.573 72.4174C306.731 70.5745 304.233 69.5376 301.627 69.5342H238.302C235.696 69.5376 233.198 70.5745 231.356 72.4174C229.514 74.2604 228.478 76.7588 228.476 79.3645V106.224C228.478 108.83 229.514 111.329 231.356 113.172C233.198 115.014 235.696 116.051 238.302 116.055ZM301.627 71.2342C303.782 71.2376 305.847 72.0954 307.371 73.6195C308.894 75.1436 309.751 77.2096 309.753 79.3645V106.224C309.751 108.379 308.894 110.445 307.371 111.969C305.847 113.494 303.782 114.351 301.627 114.355H238.302C236.147 114.351 234.081 113.494 232.558 111.969C231.035 110.445 230.178 108.379 230.176 106.224V79.3645C230.178 77.2096 231.035 75.1436 232.558 73.6195C234.081 72.0954 236.147 71.2376 238.302 71.2342H301.627Z" fill="black"/>
<path d="M282.102 103.968H298.142C298.536 103.965 298.926 103.879 299.284 103.714C299.643 103.549 299.962 103.309 300.221 103.011C300.479 102.713 300.671 102.364 300.784 101.986C300.897 101.607 300.928 101.21 300.875 100.819L298.639 84.0098C298.553 83.3449 298.229 82.7339 297.726 82.2905C297.223 81.8472 296.577 81.6017 295.906 81.6H284.716C284.057 81.6035 283.42 81.8421 282.921 82.2729C282.421 82.7036 282.092 83.2984 281.992 83.9503L279.378 100.759C279.315 101.154 279.338 101.558 279.446 101.943C279.553 102.328 279.743 102.685 280.002 102.99C280.261 103.295 280.582 103.54 280.945 103.709C281.308 103.878 281.702 103.966 282.102 103.968Z" fill="#FFC1EB"/>
<path d="M241.013 82.3777H269.663C271.353 82.3777 272.723 83.7468 272.723 85.4356C272.723 87.1244 271.353 88.4935 269.663 88.4935H241.013C239.323 88.4935 237.953 87.1244 237.953 85.4356C237.953 83.7468 239.323 82.3777 241.013 82.3777Z" fill="#FFBB45"/>
<path d="M239.402 96.5217H271.277C271.503 96.5217 271.719 96.4322 271.878 96.2728C272.038 96.1134 272.127 95.8972 272.127 95.6717C272.127 95.4463 272.038 95.2301 271.878 95.0707C271.719 94.9113 271.503 94.8217 271.277 94.8217H239.402C239.177 94.8217 238.961 94.9113 238.801 95.0707C238.642 95.2301 238.552 95.4463 238.552 95.6717C238.552 95.8972 238.642 96.1134 238.801 96.2728C238.961 96.4322 239.177 96.5217 239.402 96.5217Z" fill="black"/>
<path d="M243.891 103.789H271.269C271.495 103.789 271.711 103.7 271.87 103.54C272.03 103.381 272.119 103.165 272.119 102.939C272.119 102.714 272.03 102.498 271.87 102.338C271.711 102.179 271.495 102.089 271.269 102.089H243.891C243.665 102.089 243.449 102.179 243.29 102.338C243.13 102.498 243.041 102.714 243.041 102.939C243.041 103.165 243.13 103.381 243.29 103.54C243.449 103.7 243.665 103.789 243.891 103.789Z" fill="black"/>
<path d="M162.129 100.381C163.548 100.381 164.874 99.5308 165.877 98.005C166.842 96.3514 167.378 94.4832 167.437 92.5699C167.497 90.6566 167.077 88.7587 166.217 87.0485C165.291 85.408 163.978 84.4985 162.511 84.4348C161.045 84.371 159.677 85.2338 158.652 86.8148C157.652 88.4516 157.112 90.328 157.088 92.2463C156.952 96.7173 159.116 100.292 162.014 100.381H162.129ZM162.405 86.1348H162.46C163.31 86.1603 164.114 86.785 164.738 87.8858C165.444 89.3251 165.787 90.9152 165.737 92.5175C165.688 94.1198 165.247 95.6856 164.454 97.0785C163.761 98.1368 162.915 98.6978 162.069 98.6808C160.182 98.6213 158.669 95.7058 158.788 92.3058C158.799 90.6992 159.239 89.1246 160.063 87.7455C160.752 86.7 161.576 86.1348 162.405 86.1348Z" fill="#FB6D6D"/>
<path d="M149.375 97.3802C152.728 97.3802 155.457 93.8017 155.457 89.4072C155.457 85.0127 152.728 81.43 149.375 81.43C146.022 81.43 143.285 85.0085 143.285 89.4072C143.285 93.806 146.017 97.3802 149.375 97.3802ZM149.375 83.13C151.793 83.13 153.757 85.9435 153.757 89.4072C153.757 92.871 151.793 95.6802 149.375 95.6802C146.957 95.6802 144.985 92.8667 144.985 89.4072C144.985 85.9477 146.952 83.13 149.375 83.13Z" fill="#FB6D6D"/>
<path d="M158.011 92.225C158.216 92.2226 158.413 92.146 158.566 92.0095C158.719 91.873 158.818 91.6858 158.844 91.4823C158.87 91.2789 158.821 91.0729 158.707 90.9025C158.593 90.732 158.421 90.6085 158.223 90.5548L155.159 89.76C155.049 89.7272 154.934 89.7169 154.821 89.7296C154.707 89.7423 154.597 89.7778 154.498 89.8339C154.398 89.8901 154.311 89.9658 154.241 90.0565C154.172 90.1471 154.121 90.2509 154.092 90.3617C154.064 90.4724 154.058 90.5877 154.075 90.7008C154.092 90.8138 154.131 90.9223 154.191 91.0197C154.251 91.1171 154.33 91.2014 154.423 91.2675C154.517 91.3337 154.622 91.3804 154.734 91.4048L157.798 92.1995C157.868 92.2161 157.939 92.2247 158.011 92.225Z" fill="#FB6D6D"/>
<path d="M134.338 90.2573H144.113C144.339 90.2573 144.555 90.1677 144.714 90.0083C144.874 89.8489 144.963 89.6327 144.963 89.4073C144.963 89.1818 144.874 88.9656 144.714 88.8062C144.555 88.6468 144.339 88.5573 144.113 88.5573H134.338C134.113 88.5573 133.896 88.6468 133.737 88.8062C133.578 88.9656 133.488 89.1818 133.488 89.4073C133.488 89.6327 133.578 89.8489 133.737 90.0083C133.896 90.1677 134.113 90.2573 134.338 90.2573Z" fill="#FB6D6D"/>
<path d="M137.203 133.344C137.445 133.341 137.679 133.256 137.866 133.103C138.053 132.949 138.182 132.736 138.232 132.499C138.281 132.262 138.249 132.015 138.139 131.799C138.029 131.583 137.848 131.412 137.628 131.312L126.263 126.17C126.006 126.054 125.714 126.044 125.45 126.144C125.186 126.244 124.972 126.444 124.856 126.701C124.74 126.958 124.731 127.251 124.831 127.514C124.93 127.778 125.131 127.992 125.388 128.108L136.752 133.25C136.894 133.314 137.047 133.346 137.203 133.344Z" fill="black"/>
<path d="M277.198 230.184C277.407 230.186 277.612 230.126 277.786 230.011C277.961 229.896 278.098 229.733 278.18 229.54C278.261 229.348 278.285 229.136 278.246 228.931C278.207 228.725 278.109 228.536 277.963 228.387L250.895 200.12C250.308 199.504 249.764 198.845 249.195 198.182L249.025 197.978C247.84 196.583 246.367 195.462 244.706 194.694C243.045 193.925 241.237 193.527 239.407 193.528H227.715C227.433 193.528 227.163 193.64 226.964 193.839C226.765 194.038 226.653 194.309 226.653 194.591C226.653 194.872 226.765 195.143 226.964 195.342C227.163 195.541 227.433 195.653 227.715 195.653H239.398C240.92 195.652 242.423 195.983 243.804 196.622C245.185 197.261 246.409 198.194 247.393 199.355L247.567 199.559C248.136 200.23 248.727 200.927 249.36 201.586L276.429 229.857C276.528 229.961 276.648 230.043 276.78 230.099C276.912 230.155 277.054 230.184 277.198 230.184Z" fill="black"/>
<path d="M270.674 278.252L295.775 274.036C297.49 273.747 299.12 273.081 300.548 272.086C301.975 271.092 303.165 269.794 304.031 268.285C304.897 266.776 305.417 265.094 305.556 263.36C305.694 261.626 305.447 259.883 304.831 258.255L256.9 131.707C255.975 129.268 254.267 127.205 252.043 125.842C249.819 124.479 247.206 123.893 244.613 124.176L219.317 126.939C217.531 127.133 215.813 127.734 214.295 128.694C212.777 129.655 211.498 130.951 210.558 132.482C209.618 134.012 209.041 135.738 208.87 137.527C208.7 139.315 208.942 141.119 209.576 142.8L257.703 270.789C258.664 273.344 260.483 275.486 262.849 276.848C265.216 278.209 267.982 278.705 270.674 278.252Z" fill="#FFC1EB"/>
<path d="M334.887 255.242H267.295C264.249 255.242 261.779 252.772 261.779 249.726V201.059C261.779 198.012 264.249 195.542 267.295 195.542H334.887C337.934 195.542 340.404 198.012 340.404 201.059V249.726C340.404 252.772 337.934 255.242 334.887 255.242Z" fill="#6DC8C2"/>
<path d="M270.075 163.242H330.11C331.908 163.242 333.366 164.7 333.366 166.498V192.287C333.366 194.085 331.908 195.542 330.11 195.542H270.075C268.277 195.542 266.819 194.085 266.819 192.287V166.498C266.819 164.7 268.277 163.242 270.075 163.242Z" fill="#FFBB45"/>
<path d="M224.561 363.154H351.326L357.926 322.001H215.245L224.561 363.154ZM349.511 361.029H226.261L217.906 324.126H355.436L349.511 361.029Z" fill="black"/>
<path d="M289.548 363.702C289.83 363.702 290.1 363.59 290.3 363.391C290.499 363.192 290.611 362.922 290.611 362.64V323.986C290.611 323.704 290.499 323.434 290.3 323.235C290.1 323.035 289.83 322.923 289.548 322.923C289.267 322.923 288.996 323.035 288.797 323.235C288.598 323.434 288.486 323.704 288.486 323.986V362.64C288.486 362.922 288.598 363.192 288.797 363.391C288.996 363.59 289.267 363.702 289.548 363.702Z" fill="black"/>
<path d="M343.965 372.615C338.503 372.615 334.075 368.149 334.075 362.64C334.075 357.131 338.503 352.665 343.965 352.665C349.427 352.665 353.855 357.131 353.855 362.64C353.855 368.149 349.427 372.615 343.965 372.615Z" fill="black"/>
<path d="M289.472 372.615C283.963 372.615 279.497 368.149 279.497 362.64C279.497 357.131 283.963 352.665 289.472 352.665C294.981 352.665 299.447 357.131 299.447 362.64C299.447 368.149 294.981 372.615 289.472 372.615Z" fill="black"/>
<path d="M232.445 372.615C226.99 372.615 222.568 368.149 222.568 362.64C222.568 357.131 226.99 352.665 232.445 352.665C237.9 352.665 242.322 357.131 242.322 362.64C242.322 368.149 237.9 372.615 232.445 372.615Z" fill="black"/>
<path d="M198.636 228.348H366.29C371.594 228.348 375.538 233.873 374.399 239.7L357.455 326.34H215.989L190.561 241.115C188.7 234.847 192.801 228.348 198.636 228.348Z" fill="#0882F5"/>
<path d="M289.548 301.669C289.83 301.669 290.1 301.557 290.3 301.358C290.499 301.159 290.611 300.889 290.611 300.607V237.673C290.611 237.391 290.499 237.121 290.3 236.921C290.1 236.722 289.83 236.61 289.548 236.61C289.267 236.61 288.996 236.722 288.797 236.921C288.598 237.121 288.486 237.391 288.486 237.673V300.607C288.486 300.746 288.513 300.884 288.567 301.013C288.62 301.142 288.698 301.259 288.797 301.358C288.896 301.457 289.013 301.535 289.142 301.588C289.271 301.642 289.409 301.669 289.548 301.669Z" fill="black"/>
<path d="M315.218 244.103H353.009C355.753 244.103 357.978 246.327 357.978 249.071C357.978 251.815 355.753 254.039 353.009 254.039H315.218C312.474 254.039 310.25 251.815 310.25 249.071C310.25 246.327 312.474 244.103 315.218 244.103Z" fill="white"/>
<path d="M39.525 171.39H76.585C78.5519 171.387 80.4376 170.605 81.8281 169.214C83.2185 167.822 84.0001 165.936 84.0012 163.969V93.4192C83.999 91.4526 83.217 89.5671 81.8268 88.1761C80.4366 86.7851 78.5516 86.0021 76.585 85.9987H39.525C37.5576 86.001 35.6715 86.7835 34.2804 88.1746C32.8892 89.5658 32.1067 91.4519 32.1045 93.4192V163.969C32.1067 165.937 32.8892 167.823 34.2804 169.214C35.6715 170.605 37.5576 171.387 39.525 171.39ZM76.585 87.703C78.1011 87.7052 79.5543 88.3088 80.626 89.3812C81.6976 90.4537 82.3001 91.9074 82.3012 93.4235V163.973C82.3001 165.49 81.6976 166.943 80.626 168.016C79.5543 169.088 78.1011 169.692 76.585 169.694H39.525C38.0085 169.692 36.5547 169.088 35.4824 168.016C34.4101 166.944 33.8067 165.49 33.8045 163.973V93.4235C33.8067 91.907 34.4101 90.4533 35.4824 89.381C36.5547 88.3087 38.0085 87.7052 39.525 87.703H76.585Z" fill="black"/>
<path d="M47.362 135.277H68.731C70.5877 135.277 72.0928 136.783 72.0928 138.639V151.814C72.0928 153.671 70.5877 155.176 68.731 155.176H47.362C45.5054 155.176 44.0003 153.671 44.0003 151.814V138.639C44.0003 136.783 45.5054 135.277 47.362 135.277Z" fill="#C7B8F8"/>
<path d="M44.761 143.263H71.4C71.6254 143.263 71.8416 143.174 72.001 143.014C72.1604 142.855 72.25 142.639 72.25 142.413C72.25 142.188 72.1604 141.972 72.001 141.812C71.8416 141.653 71.6254 141.563 71.4 141.563H44.7525C44.5271 141.563 44.3109 141.653 44.1515 141.812C43.9921 141.972 43.9025 142.188 43.9025 142.413C43.9025 142.639 43.9921 142.855 44.1515 143.014C44.3109 143.174 44.5271 143.263 44.7525 143.263H44.761Z" fill="black"/>
<path d="M63.1932 152.783H66.5932C67.3333 152.755 68.0336 152.441 68.5471 151.907C69.0606 151.373 69.3474 150.662 69.3474 149.921C69.3474 149.18 69.0606 148.468 68.5471 147.935C68.0336 147.401 67.3333 147.087 66.5932 147.059H63.1932C62.8081 147.044 62.4239 147.107 62.0636 147.244C61.7034 147.381 61.3746 147.589 61.0968 147.857C60.819 148.124 60.5981 148.445 60.4472 148.799C60.2962 149.154 60.2184 149.535 60.2184 149.921C60.2184 150.306 60.2962 150.688 60.4472 151.043C60.5981 151.397 60.819 151.718 61.0968 151.985C61.3746 152.252 61.7034 152.461 62.0636 152.598C62.4239 152.735 62.8081 152.798 63.1932 152.783ZM66.5932 148.759C66.8894 148.776 67.1675 148.907 67.3708 149.123C67.5742 149.339 67.6874 149.624 67.6874 149.921C67.6874 150.218 67.5742 150.503 67.3708 150.719C67.1675 150.935 66.8894 151.065 66.5932 151.083H63.1932C63.0347 151.093 62.8758 151.07 62.7265 151.016C62.5771 150.962 62.4404 150.878 62.3247 150.769C62.2091 150.66 62.1169 150.529 62.0539 150.383C61.9909 150.237 61.9584 150.08 61.9584 149.921C61.9584 149.762 61.9909 149.605 62.0539 149.459C62.1169 149.313 62.2091 149.182 62.3247 149.073C62.4404 148.964 62.5771 148.88 62.7265 148.826C62.8758 148.772 63.0347 148.749 63.1932 148.759H66.5932Z" fill="black"/>
<path d="M46.7118 99.9813H69.428C71.6015 99.9813 73.3635 101.743 73.3635 103.917V115.944C73.3635 118.118 71.6015 119.88 69.428 119.88H46.7118C44.5382 119.88 42.7763 118.118 42.7763 115.944V103.917C42.7763 101.743 44.5382 99.9813 46.7118 99.9813Z" fill="#6DC8C2"/>
<path d="M58.0721 115.026C59.0808 115.026 60.0668 114.727 60.9055 114.167C61.7442 113.606 62.3979 112.81 62.7839 111.878C63.1699 110.946 63.2709 109.921 63.0741 108.931C62.8773 107.942 62.3916 107.033 61.6784 106.32C60.9651 105.607 60.0564 105.121 59.0671 104.924C58.0778 104.727 57.0523 104.828 56.1204 105.214C55.1885 105.6 54.392 106.254 53.8316 107.093C53.2712 107.932 52.9721 108.918 52.9721 109.926C52.9721 111.279 53.5094 112.576 54.4659 113.533C55.4223 114.489 56.7195 115.026 58.0721 115.026ZM58.0721 106.526C58.7446 106.526 59.4019 106.726 59.961 107.099C60.5202 107.473 60.956 108.004 61.2133 108.625C61.4706 109.246 61.538 109.93 61.4068 110.59C61.2756 111.249 60.9518 111.855 60.4763 112.33C60.0008 112.806 59.395 113.13 58.7354 113.261C58.0759 113.392 57.3923 113.325 56.771 113.067C56.1497 112.81 55.6187 112.374 55.2451 111.815C54.8715 111.256 54.6721 110.599 54.6721 109.926C54.6704 109.479 54.7572 109.035 54.9273 108.621C55.0974 108.207 55.3476 107.831 55.6634 107.514C55.9793 107.197 56.3547 106.945 56.768 106.774C57.1814 106.602 57.6246 106.514 58.0721 106.514V106.526Z" fill="black"/>
<path d="M42.7297 115.048H45.6112C46.8748 115.048 48.0866 114.546 48.98 113.652C49.8735 112.759 50.3755 111.547 50.3755 110.283C50.3755 109.02 49.8735 107.808 48.98 106.914C48.0866 106.021 46.8748 105.519 45.6112 105.519H42.7297V107.219H45.6112C46.4239 107.219 47.2033 107.542 47.778 108.117C48.3526 108.691 48.6755 109.471 48.6755 110.283C48.6755 111.096 48.3526 111.875 47.778 112.45C47.2033 113.025 46.4239 113.348 45.6112 113.348H42.7297V115.048Z" fill="black"/>
<path d="M70.4397 115.048H73.3254V113.348H70.4397C69.627 113.348 68.8476 113.025 68.2729 112.45C67.6983 111.875 67.3754 111.096 67.3754 110.283C67.3754 109.471 67.6983 108.691 68.2729 108.117C68.8476 107.542 69.627 107.219 70.4397 107.219H73.3254V105.519H70.4397C69.1761 105.519 67.9643 106.021 67.0709 106.914C66.1774 107.808 65.6754 109.02 65.6754 110.283C65.6754 111.547 66.1774 112.759 67.0709 113.652C67.9643 114.546 69.1761 115.048 70.4397 115.048Z" fill="black"/>
<path d="M78.8417 352.58C78.9206 352.581 78.9992 352.571 79.0754 352.55L85.9944 350.974C86.2695 350.911 86.5084 350.742 86.6586 350.503C86.8088 350.264 86.8581 349.976 86.7955 349.701C86.733 349.426 86.5637 349.187 86.325 349.036C86.0863 348.886 85.7977 348.837 85.5227 348.9L78.6037 350.48C78.3477 350.538 78.1219 350.687 77.9697 350.901C77.8175 351.114 77.7497 351.377 77.7792 351.637C77.8088 351.898 77.9336 352.138 78.1297 352.312C78.3259 352.486 78.5794 352.582 78.8417 352.58Z" fill="black"/>
<path d="M81.2897 358.385C81.3699 358.386 81.4499 358.376 81.5277 358.356L88.4466 356.775C88.5879 356.749 88.7226 356.695 88.8424 356.616C88.9623 356.537 89.0649 356.435 89.144 356.315C89.2232 356.195 89.2772 356.061 89.3029 355.919C89.3286 355.778 89.3254 355.633 89.2935 355.493C89.2616 355.353 89.2017 355.221 89.1173 355.105C89.0329 354.989 88.9259 354.891 88.8027 354.817C88.6794 354.744 88.5425 354.696 88.4003 354.676C88.258 354.657 88.1133 354.667 87.9749 354.705L81.0559 356.286C80.7999 356.343 80.5742 356.493 80.422 356.706C80.2698 356.92 80.2019 357.182 80.2314 357.443C80.261 357.703 80.3858 357.944 80.582 358.118C80.7781 358.292 81.0317 358.387 81.2939 358.385H81.2897Z" fill="black"/>
<path d="M202.755 357.153C202.905 357.153 203.054 357.121 203.191 357.059C203.328 356.996 203.45 356.905 203.549 356.792L208.25 351.475C208.422 351.262 208.504 350.991 208.481 350.718C208.458 350.445 208.33 350.192 208.124 350.011C207.919 349.83 207.651 349.735 207.378 349.747C207.104 349.758 206.846 349.875 206.656 350.073L201.981 355.398C201.796 355.61 201.701 355.886 201.719 356.167C201.736 356.448 201.864 356.711 202.075 356.898C202.265 357.058 202.505 357.148 202.755 357.153Z" fill="black"/>
<path d="M209.661 360.183C209.813 360.184 209.962 360.153 210.1 360.09C210.238 360.028 210.361 359.936 210.46 359.822L215.135 354.501C215.227 354.396 215.298 354.275 215.344 354.143C215.389 354.01 215.408 353.871 215.399 353.732C215.39 353.592 215.354 353.456 215.293 353.331C215.232 353.205 215.146 353.093 215.042 353.001C214.937 352.908 214.815 352.838 214.683 352.792C214.551 352.747 214.411 352.728 214.272 352.737C214.133 352.745 213.997 352.782 213.871 352.843C213.746 352.904 213.634 352.99 213.541 353.094L208.866 358.42C208.73 358.572 208.641 358.761 208.609 358.964C208.578 359.166 208.606 359.373 208.69 359.56C208.774 359.747 208.911 359.905 209.083 360.015C209.256 360.126 209.456 360.184 209.661 360.183Z" fill="black"/>
</svg>
